<svg width="48" height="48" viewBox="0 0 48 48" fill="none" xmlns="http://www.w3.org/2000/svg">
<path d="M24 0.666992C36.8866 0.666993 47.333 11.1134 47.333 24C47.333 36.8866 36.8866 47.333 24 47.333C11.1134 47.333 0.666993 36.8866 0.666992 24C0.666992 11.1134 11.1134 0.666992 24 0.666992ZM25.0332 14.7051C24.4635 14.1355 23.5384 14.1354 22.9688 14.7051L15.6777 21.9971C15.1081 22.5667 15.1081 23.4919 15.6777 24.0615C16.2474 24.6308 17.1727 24.631 17.7422 24.0615L22.5449 19.2529V33.2354C22.5451 34.0418 23.1974 34.6934 24.0039 34.6934C24.8102 34.6931 25.4617 34.0417 25.4619 33.2354V19.2529L30.2656 24.0566C30.8353 24.626 31.7605 24.6262 32.3301 24.0566C32.8994 23.4871 32.8994 22.5618 32.3301 21.9922L25.0381 14.7002L25.0332 14.7051Z" fill="#072E56"/>
</svg>
