<svg width="48" height="42" viewBox="0 0 48 42" fill="none" xmlns="http://www.w3.org/2000/svg">
<path d="M35.111 6.92813L46.3037 18.4406C46.96 19.1156 47.3337 20.0438 47.3337 21C47.3337 21.9562 46.96 22.8844 46.3037 23.5594L35.111 35.0719C34.5277 35.6719 33.7438 36 32.9235 36C31.2191 36 29.8337 34.575 29.8337 32.8219V27H18.167C16.5537 27 15.2503 25.6594 15.2503 24V18C15.2503 16.3406 16.5537 15 18.167 15H29.8337V9.17812C29.8337 7.425 31.2191 6 32.9235 6C33.7438 6 34.5277 6.3375 35.111 6.92813ZM15.2503 6H9.41699C7.80371 6 6.50033 7.34062 6.50033 9V33C6.50033 34.6594 7.80371 36 9.41699 36H15.2503C16.8636 36 18.167 37.3406 18.167 39C18.167 40.6594 16.8636 42 15.2503 42H9.41699C4.58626 42 0.666992 37.9688 0.666992 33V9C0.666992 4.03125 4.58626 0 9.41699 0H15.2503C16.8636 0 18.167 1.34062 18.167 3C18.167 4.65938 16.8636 6 15.2503 6Z" fill="#072E56"/>
</svg>
