<svg width="24" height="25" viewBox="0 0 24 25" fill="none" xmlns="http://www.w3.org/2000/svg">
<path d="M12 22.0698C14.6522 22.0698 17.1957 21.0163 19.0711 19.1409C20.9464 17.2655 22 14.722 22 12.0698C22 9.41766 20.9464 6.87412 19.0711 4.99876C17.1957 3.12339 14.6522 2.06982 12 2.06982C9.34784 2.06982 6.8043 3.12339 4.92893 4.99876C3.05357 6.87412 2 9.41766 2 12.0698C2 14.722 3.05357 17.2655 4.92893 19.1409C6.8043 21.0163 9.34784 22.0698 12 22.0698ZM10.4375 15.1948H11.375V12.6948H10.4375C9.91797 12.6948 9.5 12.2769 9.5 11.7573C9.5 11.2378 9.91797 10.8198 10.4375 10.8198H12.3125C12.832 10.8198 13.25 11.2378 13.25 11.7573V15.1948H13.5625C14.082 15.1948 14.5 15.6128 14.5 16.1323C14.5 16.6519 14.082 17.0698 13.5625 17.0698H10.4375C9.91797 17.0698 9.5 16.6519 9.5 16.1323C9.5 15.6128 9.91797 15.1948 10.4375 15.1948ZM12 7.06982C12.3315 7.06982 12.6495 7.20152 12.8839 7.43594C13.1183 7.67036 13.25 7.9883 13.25 8.31982C13.25 8.65134 13.1183 8.96929 12.8839 9.20371C12.6495 9.43813 12.3315 9.56982 12 9.56982C11.6685 9.56982 11.3505 9.43813 11.1161 9.20371C10.8817 8.96929 10.75 8.65134 10.75 8.31982C10.75 7.9883 10.8817 7.67036 11.1161 7.43594C11.3505 7.20152 11.6685 7.06982 12 7.06982Z" fill="#008BBF"/>
</svg>
