<svg width="24" height="25" viewBox="0 0 24 25" fill="none" xmlns="http://www.w3.org/2000/svg">
<path d="M11.9988 3.06982C12.5535 3.06982 13.0653 3.37116 13.3465 3.86536L21.7846 18.6511C22.0698 19.1493 22.0698 19.764 21.7925 20.2622C21.5151 20.7604 20.9955 21.0698 20.4369 21.0698H3.56068C3.00205 21.0698 2.48248 20.7604 2.20512 20.2622C1.92775 19.764 1.93166 19.1453 2.21293 18.6511L10.651 3.86536C10.9323 3.37116 11.4441 3.06982 11.9988 3.06982ZM11.9988 8.21268C11.4792 8.21268 11.0612 8.64259 11.0612 9.17697V13.677C11.0612 14.2113 11.4792 14.6413 11.9988 14.6413C12.5184 14.6413 12.9364 14.2113 12.9364 13.677V9.17697C12.9364 8.64259 12.5184 8.21268 11.9988 8.21268ZM13.2489 17.2127C13.2489 16.8717 13.1172 16.5447 12.8827 16.3035C12.6483 16.0624 12.3303 15.927 11.9988 15.927C11.6672 15.927 11.3493 16.0624 11.1148 16.3035C10.8804 16.5447 10.7487 16.8717 10.7487 17.2127C10.7487 17.5537 10.8804 17.8807 11.1148 18.1218C11.3493 18.3629 11.6672 18.4984 11.9988 18.4984C12.3303 18.4984 12.6483 18.3629 12.8827 18.1218C13.1172 17.8807 13.2489 17.5537 13.2489 17.2127Z" fill="#BE0000"/>
</svg>
