<svg width="24" height="25" viewBox="0 0 24 25" fill="none" xmlns="http://www.w3.org/2000/svg">
<path d="M7.40664 3.65911L6.95977 5.05197H3.75C2.2332 5.05197 1 6.33322 1 7.90911V19.3377C1 20.9136 2.2332 22.1948 3.75 22.1948H20.25C21.7668 22.1948 23 20.9136 23 19.3377V7.90911C23 6.33322 21.7668 5.05197 20.25 5.05197H17.0402L16.5934 3.65911C16.3141 2.78411 15.5277 2.19482 14.6383 2.19482H9.36172C8.47227 2.19482 7.68594 2.78411 7.40664 3.65911ZM12 9.33768C13.094 9.33768 14.1432 9.78921 14.9168 10.5929C15.6904 11.3967 16.125 12.4868 16.125 13.6234C16.125 14.76 15.6904 15.8501 14.9168 16.6539C14.1432 17.4576 13.094 17.9091 12 17.9091C10.906 17.9091 9.85677 17.4576 9.08318 16.6539C8.3096 15.8501 7.875 14.76 7.875 13.6234C7.875 12.4868 8.3096 11.3967 9.08318 10.5929C9.85677 9.78921 10.906 9.33768 12 9.33768Z" fill="#072E56"/>
</svg>
