<svg width="24" height="25" viewBox="0 0 24 25" fill="none" xmlns="http://www.w3.org/2000/svg">
<path d="M5.4 20.0698C2.41875 20.0698 0 17.7663 0 14.927C0 12.6841 1.5075 10.777 3.6075 10.0734C3.60375 9.97697 3.6 9.88054 3.6 9.78411C3.6 6.62697 6.285 4.06982 9.6 4.06982C11.8238 4.06982 13.7625 5.21982 14.8013 6.93411C15.3713 6.56982 16.0613 6.35554 16.8 6.35554C18.7875 6.35554 20.4 7.89125 20.4 9.78411C20.4 10.2198 20.3137 10.6341 20.16 11.0198C22.35 11.4413 24 13.2877 24 15.4984C24 18.0234 21.8513 20.0698 19.2 20.0698H5.4ZM8.3625 12.3198C8.01 12.6555 8.01 13.1984 8.3625 13.5305C8.715 13.8627 9.285 13.8663 9.63375 13.5305L11.0963 12.1377V16.927C11.0963 17.402 11.4975 17.7841 11.9963 17.7841C12.495 17.7841 12.8963 17.402 12.8963 16.927V12.1377L14.3588 13.5305C14.7113 13.8663 15.2812 13.8663 15.63 13.5305C15.9788 13.1948 15.9825 12.652 15.63 12.3198L12.63 9.46268C12.2775 9.12697 11.7075 9.12697 11.3588 9.46268L8.35875 12.3198H8.3625Z" fill="#072E56"/>
</svg>
