<svg width="32" height="33" viewBox="0 0 32 33" fill="none" xmlns="http://www.w3.org/2000/svg">
<path d="M2.66663 26.0702C2.66663 24.3021 3.369 22.6064 4.61925 21.3562C5.86949 20.1059 7.56518 19.4036 9.33329 19.4036H22.6666C24.4347 19.4036 26.1304 20.1059 27.3807 21.3562C28.6309 22.6064 29.3333 24.3021 29.3333 26.0702C29.3333 26.9543 28.9821 27.8021 28.357 28.4273C27.7319 29.0524 26.884 29.4036 26 29.4036H5.99996C5.1159 29.4036 4.26806 29.0524 3.64294 28.4273C3.01782 27.8021 2.66663 26.9543 2.66663 26.0702Z" stroke="#072E56" stroke-width="2" stroke-linejoin="round"/>
<path d="M16.0001 12.7366C18.7615 12.7366 21.0001 10.498 21.0001 7.73657C21.0001 4.97515 18.7615 2.73657 16.0001 2.73657C13.2387 2.73657 11.0001 4.97515 11.0001 7.73657C11.0001 10.498 13.2387 12.7366 16.0001 12.7366Z" stroke="#072E56" stroke-width="2"/>
</svg>
