<svg width="21" height="22" viewBox="0 0 21 22" fill="none" xmlns="http://www.w3.org/2000/svg">
<path d="M3.07617 3.146L1.68164 1.75146C1.0623 1.13213 0 1.571 0 2.44463V6.96045C0 7.50596 0.438867 7.94482 0.984375 7.94482H5.5002C6.37793 7.94482 6.8168 6.88252 6.19746 6.26318L4.93418 4.9999C6.35742 3.57666 8.32617 2.69482 10.5 2.69482C14.8477 2.69482 18.375 6.22217 18.375 10.5698C18.375 14.9175 14.8477 18.4448 10.5 18.4448C8.82656 18.4448 7.27617 17.9239 6.00059 17.0339C5.40586 16.6196 4.58965 16.7632 4.17129 17.3579C3.75293 17.9526 3.90059 18.7688 4.49531 19.1872C6.20156 20.3726 8.27285 21.0698 10.5 21.0698C16.2996 21.0698 21 16.3694 21 10.5698C21 4.77022 16.2996 0.0698242 10.5 0.0698242C7.6002 0.0698242 4.9752 1.24697 3.07617 3.146ZM10.5 5.31982C9.95449 5.31982 9.51562 5.75869 9.51562 6.3042V10.5698C9.51562 10.8323 9.61816 11.0825 9.80273 11.2671L12.7559 14.2202C13.1414 14.6058 13.7648 14.6058 14.1463 14.2202C14.5277 13.8347 14.5318 13.2112 14.1463 12.8298L11.4803 10.1638V6.3042C11.4803 5.75869 11.0414 5.31982 10.4959 5.31982H10.5Z" fill="#072E56"/>
</svg>
