<svg width="20" height="23" viewBox="0 0 20 23" fill="none" xmlns="http://www.w3.org/2000/svg">
<path d="M6.78571 1.10107C6.78571 0.52959 6.30804 0.0698242 5.71429 0.0698242C5.12054 0.0698242 4.64286 0.52959 4.64286 1.10107V2.81982H2.85714C1.28125 2.81982 0 4.05303 0 5.56982V6.25732V8.31982V19.3198C0 20.8366 1.28125 22.0698 2.85714 22.0698H17.1429C18.7188 22.0698 20 20.8366 20 19.3198V8.31982V6.25732V5.56982C20 4.05303 18.7188 2.81982 17.1429 2.81982H15.3571V1.10107C15.3571 0.52959 14.8795 0.0698242 14.2857 0.0698242C13.692 0.0698242 13.2143 0.52959 13.2143 1.10107V2.81982H6.78571V1.10107ZM2.14286 8.31982H17.8571V19.3198C17.8571 19.6979 17.5357 20.0073 17.1429 20.0073H2.85714C2.46429 20.0073 2.14286 19.6979 2.14286 19.3198V8.31982Z" fill="#072E56"/>
</svg>
