<svg width="27" height="22" viewBox="0 0 27 22" fill="none" xmlns="http://www.w3.org/2000/svg">
<path d="M24 2.81982C24.4125 2.81982 24.75 3.15732 24.75 3.56982V5.06982H2.25V3.56982C2.25 3.15732 2.5875 2.81982 3 2.81982H24ZM24.75 9.56982V18.5698C24.75 18.9823 24.4125 19.3198 24 19.3198H3C2.5875 19.3198 2.25 18.9823 2.25 18.5698V9.56982H24.75ZM3 0.569824C1.34531 0.569824 0 1.91514 0 3.56982V18.5698C0 20.2245 1.34531 21.5698 3 21.5698H24C25.6547 21.5698 27 20.2245 27 18.5698V3.56982C27 1.91514 25.6547 0.569824 24 0.569824H3ZM5.625 14.8198C5.00156 14.8198 4.5 15.3214 4.5 15.9448C4.5 16.5683 5.00156 17.0698 5.625 17.0698H7.875C8.49844 17.0698 9 16.5683 9 15.9448C9 15.3214 8.49844 14.8198 7.875 14.8198H5.625ZM11.625 14.8198C11.0016 14.8198 10.5 15.3214 10.5 15.9448C10.5 16.5683 11.0016 17.0698 11.625 17.0698H16.875C17.4984 17.0698 18 16.5683 18 15.9448C18 15.3214 17.4984 14.8198 16.875 14.8198H11.625Z" fill="#404040"/>
</svg>
