<svg width="22" height="23" viewBox="0 0 22 23" fill="none" xmlns="http://www.w3.org/2000/svg">
<path d="M19.9375 11.0698C19.9375 13.4402 18.9959 15.7135 17.3198 17.3896C15.6437 19.0657 13.3704 20.0073 11 20.0073C8.62963 20.0073 6.35634 19.0657 4.68023 17.3896C3.00413 15.7135 2.0625 13.4402 2.0625 11.0698C2.0625 8.69945 3.00413 6.42616 4.68023 4.75006C6.35634 3.07395 8.62963 2.13232 11 2.13232C13.3704 2.13232 15.6437 3.07395 17.3198 4.75006C18.9959 6.42616 19.9375 8.69945 19.9375 11.0698ZM0 11.0698C0 13.9872 1.15893 16.7851 3.22183 18.848C5.28473 20.9109 8.08262 22.0698 11 22.0698C13.9174 22.0698 16.7153 20.9109 18.7782 18.848C20.8411 16.7851 22 13.9872 22 11.0698C22 8.15244 20.8411 5.35455 18.7782 3.29165C16.7153 1.22875 13.9174 0.0698242 11 0.0698242C8.08262 0.0698242 5.28473 1.22875 3.22183 3.29165C1.15893 5.35455 0 8.15244 0 11.0698ZM9.96875 5.22607V11.0698C9.96875 11.4136 10.1406 11.7358 10.4285 11.9292L14.5535 14.6792C15.0262 14.9972 15.6664 14.8683 15.9844 14.3913C16.3023 13.9144 16.1734 13.2784 15.6965 12.9604L12.0312 10.5198V5.22607C12.0312 4.65459 11.5715 4.19482 11 4.19482C10.4285 4.19482 9.96875 4.65459 9.96875 5.22607Z" fill="#072E56"/>
</svg>
