<svg width="48" height="48" viewBox="0 0 48 48" fill="none" xmlns="http://www.w3.org/2000/svg">
<path d="M24.0003 47.4031C30.1887 47.4031 36.1236 44.9448 40.4995 40.5689C44.8753 36.1931 47.3337 30.2582 47.3337 24.0698C47.3337 17.8814 44.8753 11.9465 40.4995 7.57063C36.1236 3.19478 30.1887 0.73645 24.0003 0.73645C17.8119 0.73645 11.877 3.19478 7.50117 7.57063C3.12532 11.9465 0.666992 17.8814 0.666992 24.0698C0.666992 30.2582 3.12532 36.1931 7.50117 40.5689C11.877 44.9448 17.8119 47.4031 24.0003 47.4031ZM34.2998 19.7859L22.6331 31.4526C21.7764 32.3094 20.3909 32.3094 19.5433 31.4526L13.71 25.6193C12.8532 24.7625 12.8532 23.3771 13.71 22.5294C14.5667 21.6818 15.9521 21.6726 16.7998 22.5294L21.0837 26.8133L31.2008 16.687C32.0576 15.8302 33.443 15.8302 34.2907 16.687C35.1383 17.5437 35.1475 18.9292 34.2907 19.7768L34.2998 19.7859Z" fill="#072E56"/>
</svg>
