<svg width="18" height="22" viewBox="0 0 18 22" fill="none" xmlns="http://www.w3.org/2000/svg">
<path d="M5.14286 0.0698242C5.85402 0.0698242 6.42857 0.656348 6.42857 1.38232V2.69482H11.5714V1.38232C11.5714 0.656348 12.146 0.0698242 12.8571 0.0698242C13.5683 0.0698242 14.1429 0.656348 14.1429 1.38232V2.69482H16.0714C17.1362 2.69482 18 3.57666 18 4.66357V6.63232H0V4.66357C0 3.57666 0.863839 2.69482 1.92857 2.69482H3.85714V1.38232C3.85714 0.656348 4.4317 0.0698242 5.14286 0.0698242ZM0 7.94482H18V19.1011C18 20.188 17.1362 21.0698 16.0714 21.0698H1.92857C0.863839 21.0698 0 20.188 0 19.1011V7.94482ZM12.2545 12.5796C12.6321 12.194 12.6321 11.5706 12.2545 11.1892C11.8768 10.8077 11.2661 10.8036 10.8924 11.1892L9.00402 13.1169L7.11563 11.1892C6.73795 10.8036 6.12723 10.8036 5.75357 11.1892C5.37991 11.5747 5.37589 12.1981 5.75357 12.5796L7.64196 14.5073L5.75357 16.4351C5.37589 16.8206 5.37589 17.444 5.75357 17.8255C6.13125 18.2069 6.74196 18.211 7.11563 17.8255L9.00402 15.8978L10.8924 17.8255C11.2701 18.211 11.8808 18.211 12.2545 17.8255C12.6281 17.4399 12.6321 16.8165 12.2545 16.4351L10.3661 14.5073L12.2545 12.5796Z" fill="#072E56"/>
</svg>
