<svg width="13" height="23" viewBox="0 0 13 23" fill="none" xmlns="http://www.w3.org/2000/svg">
<path d="M6.53594 0.0698242C7.33069 0.0698242 7.97277 0.684277 7.97277 1.44482V2.97881C8.04461 2.9874 8.11196 2.996 8.1838 3.00889C8.20176 3.01318 8.21523 3.01318 8.23319 3.01748L10.3884 3.39561C11.1697 3.53311 11.6861 4.25068 11.5424 4.99404C11.3987 5.7374 10.6489 6.23584 9.87208 6.09834L7.73929 5.72451C6.33389 5.52686 5.09463 5.66006 4.22355 5.99092C3.35247 6.32178 3.00225 6.77725 2.92143 7.19834C2.83162 7.65811 2.89897 7.91592 2.97531 8.0749C3.05613 8.24248 3.22226 8.43154 3.55004 8.64209C4.28192 9.10186 5.40444 9.40264 6.85923 9.77217L6.98944 9.80654C8.27361 10.1331 9.84513 10.5284 11.0126 11.2589C11.6501 11.6585 12.2518 12.1999 12.6245 12.9562C13.0062 13.7253 13.087 14.5847 12.9119 15.4999C12.602 17.1327 11.4256 18.2241 9.96637 18.7956C9.35122 19.0362 8.6822 19.1909 7.97277 19.2683V20.6948C7.97277 21.4554 7.33069 22.0698 6.53594 22.0698C5.7412 22.0698 5.09912 21.4554 5.09912 20.6948V19.1952C5.08116 19.1909 5.0587 19.1909 5.04074 19.1866H5.03176C3.93618 19.0233 2.13566 18.5722 0.923338 18.0565C0.200435 17.7472 -0.127341 16.9351 0.195945 16.2433C0.519231 15.5515 1.36786 15.2378 2.09076 15.5472C3.02919 15.9468 4.57378 16.3421 5.4673 16.4753C6.89964 16.6772 8.08053 16.5612 8.87977 16.2476C9.63859 15.9511 9.98433 15.5214 10.0831 15.0058C10.1684 14.5503 10.1011 14.2882 10.0247 14.1292C9.93943 13.9573 9.77329 13.7683 9.44103 13.5577C8.70465 13.0979 7.57764 12.7972 6.11836 12.4276L5.99264 12.3976C4.71297 12.071 3.14144 11.6714 1.97402 10.9409C1.33643 10.5413 0.739245 9.99561 0.366568 9.23936C-0.010599 8.47021 -0.0869305 7.61084 0.0926728 6.69561C0.415959 5.0542 1.70012 3.98857 3.1594 3.43428C3.75658 3.20654 4.41213 3.05186 5.09912 2.96162V1.44482C5.09912 0.684277 5.7412 0.0698242 6.53594 0.0698242Z" fill="#072E56"/>
</svg>
