<svg width="23" height="21" viewBox="0 0 23 21" fill="none" xmlns="http://www.w3.org/2000/svg">
<path d="M18.8398 7.56982C20.1758 7.56982 22.5 8.70264 22.5 10.0698C22.5 11.4761 20.1758 12.5698 18.8398 12.5698H14.2852L10.3594 19.4409C10.1367 19.8315 9.72266 20.0698 9.27344 20.0698H7.07812C6.66406 20.0698 6.36328 19.6714 6.47656 19.2729L8.39062 12.5698H4.375L2.6875 14.8198C2.57031 14.9761 2.38281 15.0698 2.1875 15.0698H0.546875C0.242188 15.0698 0 14.8237 0 14.5229C0 14.4722 0.0078125 14.4214 0.0195312 14.3706L1.25 10.0698L0.0195312 5.76904C0.00390625 5.71826 0 5.66748 0 5.6167C0 5.31201 0.246094 5.06982 0.546875 5.06982H2.1875C2.38281 5.06982 2.57031 5.16357 2.6875 5.31982L4.375 7.56982H8.39453L6.48047 0.866699C6.36328 0.468262 6.66406 0.0698242 7.07812 0.0698242H9.27344C9.72266 0.0698242 10.1367 0.312012 10.3594 0.69873L14.2852 7.56982H18.8398Z" fill="#072E56"/>
</svg>
