<svg width="27" height="22" viewBox="0 0 27 22" fill="none" xmlns="http://www.w3.org/2000/svg">
<path d="M22.0359 9.91201C22.0359 9.91201 22.3922 11.6558 22.4719 12.0214H20.9062C21.0609 11.6042 21.6562 9.98232 21.6562 9.98232C21.6469 9.99639 21.8109 9.55576 21.9047 9.28389L22.0359 9.91201ZM27 2.81982V19.3198C27 20.562 25.9922 21.5698 24.75 21.5698H2.25C1.00781 21.5698 0 20.562 0 19.3198V2.81982C0 1.57764 1.00781 0.569824 2.25 0.569824H24.75C25.9922 0.569824 27 1.57764 27 2.81982ZM7.14844 14.5948L10.1109 7.31982H8.11875L6.27656 12.2886L6.075 11.2808L5.41875 7.93389C5.31094 7.46982 4.97813 7.33857 4.56563 7.31982H1.53281L1.5 7.46514C2.24062 7.65264 2.90156 7.92451 3.47812 8.2667L5.15625 14.5948H7.14844ZM11.5734 14.6042L12.7547 7.31982H10.8703L9.69375 14.6042H11.5734ZM18.1312 12.2229C18.1406 11.3933 17.6344 10.7604 16.5516 10.2401C15.8906 9.90732 15.4875 9.68232 15.4875 9.34014C15.4969 9.03076 15.8297 8.71201 16.5703 8.71201C17.1844 8.69795 17.6344 8.84326 17.9719 8.98857L18.1406 9.06826L18.3984 7.49326C18.0281 7.34795 17.4375 7.18389 16.7109 7.18389C14.85 7.18389 13.5422 8.17764 13.5328 9.59326C13.5188 10.6386 14.4703 11.2198 15.1828 11.5714C15.9094 11.9276 16.1578 12.162 16.1578 12.4761C16.1484 12.9636 15.5672 13.1886 15.0281 13.1886C14.2781 13.1886 13.875 13.0714 13.2609 12.7995L13.0125 12.6823L12.75 14.3183C13.1906 14.5198 14.0062 14.6979 14.85 14.7073C16.8281 14.712 18.1172 13.7323 18.1312 12.2229ZM24.75 14.6042L23.2313 7.31982H21.7734C21.3234 7.31982 20.9813 7.45107 20.7891 7.92451L17.9906 14.6042H19.9688C19.9688 14.6042 20.2922 13.7042 20.3625 13.512H22.7812C22.8375 13.7698 23.0062 14.6042 23.0062 14.6042H24.75Z" fill="#1A1F71"/>
</svg>
