<svg width="40" height="41" viewBox="0 0 40 41" fill="none" xmlns="http://www.w3.org/2000/svg">
<path d="M9.9165 5.06982C11.1321 5.06982 12.2979 5.56368 13.1574 6.44276C14.017 7.32184 14.4998 8.51412 14.4998 9.75732C14.4998 11.0005 14.017 12.1928 13.1574 13.0719C12.2979 13.951 11.1321 14.4448 9.9165 14.4448C8.70093 14.4448 7.53514 13.951 6.6756 13.0719C5.81606 12.1928 5.33317 11.0005 5.33317 9.75732C5.33317 8.51412 5.81606 7.32184 6.6756 6.44276C7.53514 5.56368 8.70093 5.06982 9.9165 5.06982ZM30.9998 5.06982C32.2154 5.06982 33.3812 5.56368 34.2407 6.44276C35.1003 7.32184 35.5832 8.51412 35.5832 9.75732C35.5832 11.0005 35.1003 12.1928 34.2407 13.0719C33.3812 13.951 32.2154 14.4448 30.9998 14.4448C29.7843 14.4448 28.6185 13.951 27.7589 13.0719C26.8994 12.1928 26.4165 11.0005 26.4165 9.75732C26.4165 8.51412 26.8994 7.32184 27.7589 6.44276C28.6185 5.56368 29.7843 5.06982 30.9998 5.06982ZM1.6665 22.5718C1.6665 19.1206 4.40505 16.3198 7.77952 16.3198H10.2259C11.1368 16.3198 12.0019 16.5249 12.7811 16.8882C12.7066 17.3101 12.6722 17.7495 12.6722 18.1948C12.6722 20.4331 13.6347 22.4429 15.153 23.8198C15.1415 23.8198 15.13 23.8198 15.1129 23.8198H2.88682C2.2165 23.8198 1.6665 23.2573 1.6665 22.5718ZM24.8868 23.8198C24.8754 23.8198 24.8639 23.8198 24.8467 23.8198C26.3707 22.4429 27.3274 20.4331 27.3274 18.1948C27.3274 17.7495 27.2873 17.3159 27.2186 16.8882C27.9978 16.519 28.8629 16.3198 29.7738 16.3198H32.2201C35.5946 16.3198 38.3332 19.1206 38.3332 22.5718C38.3332 23.2632 37.7832 23.8198 37.1129 23.8198H24.8868ZM14.4998 18.1948C14.4998 16.703 15.0793 15.2722 16.1107 14.2173C17.1422 13.1625 18.5411 12.5698 19.9998 12.5698C21.4585 12.5698 22.8575 13.1625 23.8889 14.2173C24.9204 15.2722 25.4998 16.703 25.4998 18.1948C25.4998 19.6867 24.9204 21.1174 23.8889 22.1723C22.8575 23.2272 21.4585 23.8198 19.9998 23.8198C18.5411 23.8198 17.1422 23.2272 16.1107 22.1723C15.0793 21.1174 14.4998 19.6867 14.4998 18.1948ZM8.99984 33.5054C8.99984 29.1929 12.4201 25.6948 16.6368 25.6948H23.3629C27.5795 25.6948 30.9998 29.1929 30.9998 33.5054C30.9998 34.3667 30.3181 35.0698 29.4701 35.0698H10.5295C9.68734 35.0698 8.99984 34.3726 8.99984 33.5054Z" fill="#072E56"/>
</svg>
