<svg width="16" height="16" viewBox="0 0 16 16" fill="none" xmlns="http://www.w3.org/2000/svg">
<path d="M8.79776 1.15888C8.65055 0.858133 8.33947 0.666748 7.99784 0.666748C7.65621 0.666748 7.34791 0.858133 7.19793 1.15888L5.41201 4.77605L1.42355 5.35568C1.09025 5.40489 0.812501 5.63455 0.709734 5.94897C0.606967 6.26339 0.690291 6.61061 0.929155 6.84301L3.82329 9.66183L3.14003 13.6454C3.08448 13.9735 3.22335 14.307 3.49832 14.5011C3.77329 14.6953 4.13714 14.7199 4.43711 14.564L8.00062 12.6912L11.5641 14.564C11.8641 14.7199 12.2279 14.698 12.5029 14.5011C12.7779 14.3043 12.9168 13.9735 12.8612 13.6454L12.1752 9.66183L15.0693 6.84301C15.3082 6.61061 15.3943 6.26339 15.2887 5.94897C15.1832 5.63455 14.9082 5.40489 14.5749 5.35568L10.5837 4.77605L8.79776 1.15888Z" fill="#BBBBBB"/>
<mask id="mask0_1478_10283" style="mask-type:alpha" maskUnits="userSpaceOnUse" x="0" y="0" width="8" height="16">
<rect width="8" height="16" fill="#D9D9D9"/>
</mask>
<g mask="url(#mask0_1478_10283)">
<path d="M8.79776 1.15879C8.65055 0.858041 8.33947 0.666656 7.99784 0.666656C7.65621 0.666656 7.34791 0.858041 7.19793 1.15879L5.41201 4.77596L1.42355 5.35558C1.09025 5.4048 0.812501 5.63446 0.709734 5.94888C0.606967 6.2633 0.690291 6.61052 0.929155 6.84292L3.82329 9.66174L3.14003 13.6453C3.08448 13.9734 3.22335 14.3069 3.49832 14.501C3.77329 14.6952 4.13714 14.7198 4.43711 14.5639L8.00062 12.6911L11.5641 14.5639C11.8641 14.7198 12.2279 14.6979 12.5029 14.501C12.7779 14.3042 12.9168 13.9734 12.8612 13.6453L12.1752 9.66174L15.0693 6.84292C15.3082 6.61052 15.3943 6.2633 15.2887 5.94888C15.1832 5.63446 14.9082 5.4048 14.5749 5.35558L10.5837 4.77596L8.79776 1.15879Z" fill="#072E56"/>
</g>
</svg>
