<svg width="40" height="41" viewBox="0 0 40 41" fill="none" xmlns="http://www.w3.org/2000/svg">
<circle cx="20" cy="20.0698" r="20" fill="white" fill-opacity="0.5"/>
<path d="M19.9995 8.49097C19.1676 8.49097 18.4956 9.13776 18.4956 9.93834V10.748C15.0883 11.2681 12.4799 14.1086 12.4799 17.537V19.0477C12.4799 21.1012 11.7515 23.0958 10.4214 24.697L9.72118 25.5428C9.4486 25.8684 9.3969 26.3162 9.58489 26.6916C9.77288 27.067 10.1677 27.3068 10.6 27.3068H29.3989C29.8313 27.3068 30.226 27.067 30.414 26.6916C30.602 26.3162 30.5503 25.8684 30.2777 25.5428L29.5775 24.7015C28.2475 23.0958 27.519 21.1012 27.519 19.0477V17.537C27.519 14.1086 24.9107 11.2681 21.5034 10.748V9.93834C21.5034 9.13776 20.8313 8.49097 19.9995 8.49097ZM19.9995 12.8331H20.3754C23.0731 12.8331 25.2631 14.9408 25.2631 17.537V19.0477C25.2631 21.2142 25.9164 23.3265 27.1289 25.1357H12.87C14.0825 23.3265 14.7358 21.2142 14.7358 19.0477V17.537C14.7358 14.9408 16.9258 12.8331 19.6235 12.8331H19.9995ZM23.0073 28.7541H19.9995H16.9916C16.9916 29.523 17.3065 30.2603 17.8705 30.8031C18.4345 31.3458 19.2005 31.6489 19.9995 31.6489C20.7984 31.6489 21.5645 31.3458 22.1284 30.8031C22.6924 30.2603 23.0073 29.523 23.0073 28.7541Z" fill="#072E56"/>
</svg>
