<svg width="20" height="15" viewBox="0 0 20 15" fill="none" xmlns="http://www.w3.org/2000/svg">
<path d="M11.9062 2.41078L5.81563 0.126404C5.29375 -0.0673457 4.71562 -0.0392207 4.21875 0.210779L2.78437 0.926404C2.4375 1.1014 2.4125 1.58578 2.7375 1.79515L7.32812 4.74828L4.25 6.32015L2.43125 5.51078C2.15938 5.3889 1.84375 5.39515 1.57812 5.52953L0.571875 6.03265C0.28125 6.17953 0.203125 6.55765 0.415625 6.80453L2.7 9.47015C2.89062 9.69203 3.16875 9.82015 3.45937 9.82015H7.7625C7.91875 9.82015 8.07188 9.78265 8.20938 9.7139L16.7375 5.4514C18.1906 4.72328 19.3156 3.47328 19.8875 1.9514C20.1844 1.1639 19.6 0.320154 18.7563 0.320154H16.9625C16.3312 0.320154 15.7063 0.470154 15.1438 0.757654L11.9062 2.41078ZM0 13.8202C0 14.3733 0.446875 14.8202 1 14.8202H19C19.5531 14.8202 20 14.3733 20 13.8202C20 13.267 19.5531 12.8202 19 12.8202H1C0.446875 12.8202 0 13.267 0 13.8202Z" fill="#072E56"/>
</svg>
