<svg width="24" height="20" viewBox="0 0 24 20" fill="#BBBBBB" xmlns="http://www.w3.org/2000/svg">
<path d="M23.292 9.98047C23.292 10.6836 22.7061 11.2344 22.042 11.2344H20.792L20.8193 17.4922C20.8193 17.5977 20.8115 17.7031 20.7998 17.8086V18.4375C20.7998 19.3008 20.1006 20 19.2373 20H18.6123C18.5693 20 18.5264 20 18.4834 19.9961C18.4287 20 18.374 20 18.3193 20H17.0498H16.1123C15.249 20 14.5498 19.3008 14.5498 18.4375V17.5V15C14.5498 14.3086 13.9912 13.75 13.2998 13.75H10.7998C10.1084 13.75 9.5498 14.3086 9.5498 15V17.5V18.4375C9.5498 19.3008 8.85059 20 7.9873 20H7.0498H5.80371C5.74512 20 5.68652 19.9961 5.62793 19.9922C5.58105 19.9961 5.53418 20 5.4873 20H4.8623C3.99902 20 3.2998 19.3008 3.2998 18.4375V14.0625C3.2998 14.0273 3.2998 13.9883 3.30371 13.9531V11.2344H2.0498C1.34668 11.2344 0.799805 10.6875 0.799805 9.98047C0.799805 9.62891 0.916992 9.31641 1.19043 9.04297L11.2061 0.3125C11.4795 0.0390625 11.792 0 12.0654 0C12.3389 0 12.6514 0.078125 12.8857 0.273438L22.8623 9.04297C23.1748 9.31641 23.3311 9.62891 23.292 9.98047Z" fill="#BBBBBB"/>
</svg>
