<svg width="23" height="22" viewBox="0 0 23 22" fill="none" xmlns="http://www.w3.org/2000/svg">
<path d="M1.19971 18.5001C1.19971 17.174 1.72649 15.9023 2.66417 14.9646C3.60185 14.0269 4.87362 13.5001 6.19971 13.5001H16.1997C17.5258 13.5001 18.7976 14.0269 19.7352 14.9646C20.6729 15.9023 21.1997 17.174 21.1997 18.5001C21.1997 19.1632 20.9363 19.799 20.4675 20.2679C19.9986 20.7367 19.3627 21.0001 18.6997 21.0001H3.69971C3.03667 21.0001 2.40078 20.7367 1.93194 20.2679C1.4631 19.799 1.19971 19.1632 1.19971 18.5001Z" stroke="#BBBBBB" stroke-width="2" stroke-linejoin="round"/>
<path d="M11.1997 8.5C13.2708 8.5 14.9497 6.82107 14.9497 4.75C14.9497 2.67893 13.2708 1 11.1997 1C9.12864 1 7.44971 2.67893 7.44971 4.75C7.44971 6.82107 9.12864 8.5 11.1997 8.5Z" stroke="#BBBBBB" stroke-width="2"/>
</svg>
