<svg width="23" height="20" viewBox="0 0 23 20" fill="none" xmlns="http://www.w3.org/2000/svg">
<path d="M19.2397 7.5C20.5757 7.5 22.8999 8.63281 22.8999 10C22.8999 11.4062 20.5757 12.5 19.2397 12.5H14.6851L10.7593 19.3711C10.5366 19.7617 10.1226 20 9.67334 20H7.47803C7.06396 20 6.76318 19.6016 6.87646 19.2031L8.79053 12.5H4.7749L3.0874 14.75C2.97021 14.9062 2.78271 15 2.5874 15H0.946777C0.64209 15 0.399902 14.7539 0.399902 14.4531C0.399902 14.4023 0.407715 14.3516 0.419434 14.3008L1.6499 10L0.419434 5.69922C0.403809 5.64844 0.399902 5.59766 0.399902 5.54688C0.399902 5.24219 0.645996 5 0.946777 5H2.5874C2.78271 5 2.97021 5.09375 3.0874 5.25L4.7749 7.5H8.79443L6.88037 0.796875C6.76318 0.398438 7.06396 0 7.47803 0H9.67334C10.1226 0 10.5366 0.242188 10.7593 0.628906L14.6851 7.5H19.2397Z" fill="#BBBBBB"/>
</svg>
