<svg width="24" height="20" viewBox="0 0 24 20" fill="none" xmlns="http://www.w3.org/2000/svg">
<path d="M16.2246 0H7.47461C6.43945 0 5.5957 0.851563 5.63477 1.88281C5.64258 2.08984 5.65039 2.29688 5.66211 2.5H1.53711C1.01758 2.5 0.599609 2.91797 0.599609 3.4375C0.599609 7.05469 1.9082 9.57031 3.66602 11.2773C5.39648 12.9609 7.50586 13.8086 9.06055 14.2383C9.97461 14.4922 10.5996 15.2539 10.5996 16.0195C10.5996 16.8359 9.93555 17.5 9.11914 17.5H8.09961C7.4082 17.5 6.84961 18.0586 6.84961 18.75C6.84961 19.4414 7.4082 20 8.09961 20H15.5996C16.291 20 16.8496 19.4414 16.8496 18.75C16.8496 18.0586 16.291 17.5 15.5996 17.5H14.5801C13.7637 17.5 13.0996 16.8359 13.0996 16.0195C13.0996 15.2539 13.7207 14.4883 14.6387 14.2383C16.1973 13.8086 18.3066 12.9609 20.0371 11.2773C21.791 9.57031 23.0996 7.05469 23.0996 3.4375C23.0996 2.91797 22.6816 2.5 22.1621 2.5H18.0371C18.0488 2.29688 18.0566 2.09375 18.0645 1.88281C18.1035 0.851563 17.2598 0 16.2246 0ZM2.50977 4.375H5.80664C6.16211 7.89453 6.94727 10.2461 7.83398 11.8203C6.86133 11.3906 5.84961 10.7852 4.97461 9.93359C3.72461 8.71875 2.70898 6.96484 2.51367 4.375H2.50977ZM18.7285 9.93359C17.8535 10.7852 16.8418 11.3906 15.8691 11.8203C16.7559 10.2461 17.541 7.89453 17.8965 4.375H21.1934C20.9941 6.96484 19.9785 8.71875 18.7324 9.93359H18.7285Z" fill="#BBBBBB"/>
</svg>
