<svg width="16" height="17" viewBox="0 0 16 17" fill="none" xmlns="http://www.w3.org/2000/svg">
<path d="M8.79776 1.7287C8.65055 1.42796 8.33947 1.23657 7.99784 1.23657C7.65621 1.23657 7.34791 1.42796 7.19793 1.7287L5.41201 5.34588L1.42355 5.9255C1.09025 5.97471 0.812501 6.20438 0.709734 6.51879C0.606967 6.83321 0.690291 7.18044 0.929155 7.41283L3.82329 10.2317L3.14003 14.2152C3.08448 14.5433 3.22335 14.8768 3.49832 15.071C3.77329 15.2651 4.13714 15.2897 4.43711 15.1338L8.00062 13.261L11.5641 15.1338C11.8641 15.2897 12.2279 15.2678 12.5029 15.071C12.7779 14.8741 12.9168 14.5433 12.8612 14.2152L12.1752 10.2317L15.0693 7.41283C15.3082 7.18044 15.3943 6.83321 15.2887 6.51879C15.1832 6.20438 14.9082 5.97471 14.5749 5.9255L10.5837 5.34588L8.79776 1.7287Z" fill="#072E56"/>
</svg>
