<svg width="24" height="25" viewBox="0 0 24 25" fill="none" xmlns="http://www.w3.org/2000/svg">
<path d="M18.2503 10.1949C18.2503 11.9876 17.6682 13.6436 16.6877 14.9871L21.6333 19.9356C22.1216 20.4238 22.1216 21.2167 21.6333 21.7049C21.145 22.1931 20.352 22.1931 19.8637 21.7049L14.9181 16.7564C13.5743 17.7406 11.918 18.3187 10.1249 18.3187C5.63641 18.3187 1.99951 14.6825 1.99951 10.1949C1.99951 5.70723 5.63641 2.07104 10.1249 2.07104C14.6134 2.07104 18.2503 5.70723 18.2503 10.1949ZM10.1249 15.819C10.8636 15.819 11.5951 15.6736 12.2776 15.3909C12.9601 15.1083 13.5802 14.694 14.1026 14.1717C14.6249 13.6495 15.0393 13.0295 15.322 12.3471C15.6047 11.6648 15.7502 10.9334 15.7502 10.1949C15.7502 9.45628 15.6047 8.72493 15.322 8.04258C15.0393 7.36022 14.6249 6.74021 14.1026 6.21796C13.5802 5.69571 12.9601 5.28144 12.2776 4.99879C11.5951 4.71615 10.8636 4.57068 10.1249 4.57068C9.38619 4.57068 8.6547 4.71615 7.97221 4.99879C7.28972 5.28144 6.66959 5.69571 6.14724 6.21796C5.62488 6.74021 5.21053 7.36022 4.92783 8.04258C4.64514 8.72493 4.49963 9.45628 4.49963 10.1949C4.49963 10.9334 4.64514 11.6648 4.92783 12.3471C5.21053 13.0295 5.62488 13.6495 6.14724 14.1717C6.66959 14.694 7.28972 15.1083 7.97221 15.3909C8.6547 15.6736 9.38619 15.819 10.1249 15.819Z" fill="#BBBBBB"/>
</svg>
