<svg width="40" height="41" viewBox="0 0 40 41" fill="none" xmlns="http://www.w3.org/2000/svg">
<path d="M15.8335 9.50334C15.8335 7.27677 17.7215 3.40308 20.0002 3.40308C22.3439 3.40308 24.1668 7.27677 24.1668 9.50334V13.8197L35.7424 21.5346C36.3218 21.9187 36.6668 22.5697 36.6668 23.2664V26.9578C36.6668 27.6674 35.9702 28.1687 35.2931 27.9473L24.1668 24.2364V29.4447L27.9168 32.2572C28.1772 32.4526 28.3335 32.7651 28.3335 33.0906V35.825C28.3335 36.3328 27.9233 36.7364 27.422 36.7364C27.3374 36.7364 27.2528 36.7234 27.1681 36.7039L20.0002 34.6531L12.8322 36.7039C12.7476 36.7299 12.6629 36.7364 12.5783 36.7364C12.0705 36.7364 11.6668 36.3263 11.6668 35.825V33.0906C11.6668 32.7651 11.8231 32.4526 12.0835 32.2572L15.8335 29.4447V24.2364L4.70719 27.9473C4.03011 28.1687 3.3335 27.6674 3.3335 26.9578V23.2664C3.3335 22.5697 3.67855 21.9187 4.25798 21.5346L15.8335 13.8197V9.50334Z" fill="#072E56"/>
</svg>
