<svg width="25" height="25" viewBox="0 0 25 25" fill="none" xmlns="http://www.w3.org/2000/svg">
<path d="M1.5 19.2691V8.70257C1.5 7.82842 2.04656 7.04436 2.88188 6.72072L12.0909 3.1474C12.3522 3.04397 12.6444 3.04397 12.9091 3.1474L22.1181 6.72072C22.9534 7.04436 23.5 7.83176 23.5 8.70257V19.2691C23.5 19.7128 23.1322 20.0698 22.675 20.0698H21.025C20.5678 20.0698 20.2 19.7128 20.2 19.2691V10.4609C20.2 9.87032 19.7084 9.39321 19.1 9.39321H5.9C5.29156 9.39321 4.8 9.87032 4.8 10.4609V19.2691C4.8 19.7128 4.43219 20.0698 3.975 20.0698H2.325C1.86781 20.0698 1.5 19.7128 1.5 19.2691ZM18.275 20.0698H6.725C6.26781 20.0698 5.9 19.7128 5.9 19.2691V17.4007H19.1V19.2691C19.1 19.7128 18.7322 20.0698 18.275 20.0698ZM5.9 16.333V14.1977H19.1V16.333H5.9ZM5.9 13.13V10.4609H19.1V13.13H5.9Z" fill="#072E56"/>
</svg>
