<svg width="67" height="66" viewBox="0 0 67 66" fill="none" xmlns="http://www.w3.org/2000/svg">
<rect x="0.37207" y="0.941895" width="65.9208" height="64.186" rx="8" fill="white" fill-opacity="0.4"/>
<rect x="1.1744" y="1.74422" width="64.3161" height="62.5814" rx="7.19767" stroke="white" stroke-opacity="0.1" stroke-width="1.60465"/>
<path d="M40.2042 17.729C38.357 17.9425 36.6581 18.8446 35.4466 20.2553C34.8555 20.9084 34.4107 21.6803 34.1422 22.5193C33.8736 23.3583 33.7873 24.245 33.8892 25.1199C34.818 25.1015 35.7309 24.8759 36.5614 24.4597C37.3918 24.0436 38.119 23.4473 38.6897 22.7144C39.2638 22.0276 39.6937 21.2322 39.9539 20.3757C40.2141 19.5192 40.2993 18.6191 40.2042 17.729Z" fill="#919191"/>
<path d="M46.8035 28.0347C46.0946 27.1098 45.1917 26.3514 44.1582 25.813C43.1247 25.2747 41.9858 24.9693 40.8216 24.9185C38.0141 24.9185 36.8251 26.2374 34.875 26.2374C32.8637 26.2374 31.3354 24.9231 28.9069 24.9231C27.5844 24.9894 26.2981 25.377 25.1591 26.0524C24.0202 26.7277 23.0629 27.6704 22.3703 28.7989C20.1053 32.2422 20.4935 38.7176 24.163 44.2349C25.4758 46.2079 27.2303 48.427 29.5228 48.4469C31.5646 48.4668 32.1393 47.1631 34.904 47.1494C37.6687 47.1356 38.1945 48.4637 40.2302 48.4423C42.5227 48.4255 44.375 45.9665 45.6878 43.9934C46.4801 42.8199 47.1572 41.5726 47.7098 40.2689C46.4915 39.8265 45.427 39.0414 44.6445 38.0082C43.862 36.9749 43.3947 35.7376 43.299 34.445C43.2032 33.1524 43.483 31.8597 44.1048 30.7224C44.7265 29.5852 45.6637 28.6518 46.8035 28.0347Z" fill="#919191"/>
</svg>
