<svg width="22" height="23" viewBox="0 0 22 23" fill="none" xmlns="http://www.w3.org/2000/svg">
<path d="M12.375 1.44531C12.375 0.684766 11.7605 0.0703125 11 0.0703125C10.2395 0.0703125 9.625 0.684766 9.625 1.44531V11.8738L6.47109 8.71992C5.93398 8.18281 5.06172 8.18281 4.52461 8.71992C3.9875 9.25703 3.9875 10.1293 4.52461 10.6664L10.0246 16.1664C10.5617 16.7035 11.434 16.7035 11.9711 16.1664L17.4711 10.6664C18.0082 10.1293 18.0082 9.25703 17.4711 8.71992C16.934 8.18281 16.0617 8.18281 15.5246 8.71992L12.375 11.8738V1.44531ZM2.75 15.1953C1.2332 15.1953 0 16.4285 0 17.9453V19.3203C0 20.8371 1.2332 22.0703 2.75 22.0703H19.25C20.7668 22.0703 22 20.8371 22 19.3203V17.9453C22 16.4285 20.7668 15.1953 19.25 15.1953H14.8887L12.9422 17.1418C11.868 18.216 10.1277 18.216 9.05352 17.1418L7.11133 15.1953H2.75ZM18.5625 17.6016C18.836 17.6016 19.0983 17.7102 19.2917 17.9036C19.4851 18.097 19.5938 18.3593 19.5938 18.6328C19.5938 18.9063 19.4851 19.1686 19.2917 19.362C19.0983 19.5554 18.836 19.6641 18.5625 19.6641C18.289 19.6641 18.0267 19.5554 17.8333 19.362C17.6399 19.1686 17.5312 18.9063 17.5312 18.6328C17.5312 18.3593 17.6399 18.097 17.8333 17.9036C18.0267 17.7102 18.289 17.6016 18.5625 17.6016Z" fill="#072E56"/>
</svg>
