<svg width="67" height="66" viewBox="0 0 67 66" fill="none" xmlns="http://www.w3.org/2000/svg">
<rect x="0.707092" y="0.941895" width="65.9208" height="64.186" rx="8" fill="white" fill-opacity="0.4"/>
<rect x="1.50942" y="1.74422" width="64.3161" height="62.5814" rx="7.19767" stroke="white" stroke-opacity="0.1" stroke-width="1.60465"/>
<g clip-path="url(#clip0_559_13277)">
<path fill-rule="evenodd" clip-rule="evenodd" d="M24.0438 33.0349C24.0438 31.9926 24.2261 30.9932 24.552 30.056L18.8515 25.9263C17.7404 28.0662 17.1146 30.4777 17.1146 33.0349C17.1146 35.59 17.7399 37.9998 18.8491 40.1385L24.5464 36.0007C24.2237 35.0678 24.0438 34.0721 24.0438 33.0349Z" fill="#FBBC05"/>
<path fill-rule="evenodd" clip-rule="evenodd" d="M34.0525 23.5528C36.4392 23.5528 38.595 24.3551 40.2887 25.6679L45.216 20.9999C42.2135 18.52 38.364 16.9883 34.0525 16.9883C27.3589 16.9883 21.606 20.6198 18.8514 25.9262L24.5517 30.0559C25.8652 26.2734 29.6092 23.5528 34.0525 23.5528Z" fill="#EA4335"/>
<path fill-rule="evenodd" clip-rule="evenodd" d="M34.0525 42.5168C29.6095 42.5168 25.8654 39.7961 24.552 36.0137L18.8514 40.1426C21.606 45.4498 27.3589 49.0813 34.0525 49.0813C38.1838 49.0813 42.1281 47.6895 45.0883 45.082L39.6775 41.1135C38.1507 42.0258 36.2281 42.5168 34.0525 42.5168Z" fill="#34A853"/>
<path fill-rule="evenodd" clip-rule="evenodd" d="M50.2204 33.0349C50.2204 32.0866 50.0663 31.0654 49.8353 30.1174H34.0526V36.3172H43.1374C42.6831 38.431 41.4468 40.056 39.6775 41.1136L45.0883 45.0821C48.1978 42.3441 50.2204 38.2653 50.2204 33.0349Z" fill="#4285F4"/>
</g>
<defs>
<clipPath id="clip0_559_13277">
<rect width="33.8278" height="32.093" fill="white" transform="translate(16.7536 16.9883)"/>
</clipPath>
</defs>
</svg>
