<svg width="16" height="17" viewBox="0 0 16 17" fill="none" xmlns="http://www.w3.org/2000/svg">
<path d="M5.49967 11.4871C6.18978 11.4871 6.74967 12.047 6.74967 12.7371V13.1538L8.6377 11.7371C8.85384 11.5756 9.11686 11.4871 9.3877 11.4871H12.9997C13.2288 11.4871 13.4163 11.2996 13.4163 11.0704V3.57006C13.4163 3.34088 13.2288 3.15337 12.9997 3.15337H2.99967C2.77051 3.15337 2.58301 3.34088 2.58301 3.57006V11.0704C2.58301 11.2996 2.77051 11.4871 2.99967 11.4871H5.49967ZM6.74967 14.7164L6.74447 14.7216L6.61165 14.8205L6.16634 15.1539C6.04134 15.2476 5.87207 15.2633 5.72884 15.193C5.58561 15.1226 5.49967 14.9794 5.49967 14.8205V14.2658V14.0992V14.0913V13.9872V12.7371H4.24967H2.99967C2.0804 12.7371 1.33301 11.9897 1.33301 11.0704V3.57006C1.33301 2.65075 2.0804 1.90332 2.99967 1.90332H12.9997C13.9189 1.90332 14.6663 2.65075 14.6663 3.57006V11.0704C14.6663 11.9897 13.9189 12.7371 12.9997 12.7371H9.3877L6.74967 14.7164Z" fill="#072E56"/>
</svg>
