<svg width="20" height="20" viewBox="0 0 20 20" fill="none" xmlns="http://www.w3.org/2000/svg">
<path d="M19.4569 0.218747C19.8515 0.492184 20.0585 0.96484 19.9843 1.4375L17.4843 17.6875C17.4257 18.0664 17.1952 18.3984 16.8593 18.5859C16.5234 18.7734 16.121 18.7969 15.7655 18.6484L11.0937 16.707L8.41789 19.6016C8.07023 19.9805 7.52336 20.1055 7.04289 19.918C6.56242 19.7305 6.24992 19.2656 6.24992 18.75V15.4844C6.24992 15.3281 6.30851 15.1797 6.41398 15.0664L12.9609 7.92187C13.1874 7.67578 13.1796 7.29687 12.9452 7.0625C12.7109 6.82812 12.3319 6.8125 12.0859 7.03515L4.14054 14.0937L0.691325 12.3672C0.277262 12.1602 0.0116373 11.7461 -8.1424e-05 11.2852C-0.0118002 10.8242 0.230387 10.3945 0.628825 10.1641L18.1288 0.164059C18.5468 -0.074222 19.0624 -0.0507845 19.4569 0.218747Z" fill="#525252"/>
</svg>
