<svg width="24" height="25" viewBox="0 0 24 25" fill="none" xmlns="http://www.w3.org/2000/svg">
<path d="M9.5 5.72998C9.5 4.39404 10.6328 2.06982 12 2.06982C13.4062 2.06982 14.5 4.39404 14.5 5.72998V8.31982L21.4453 12.9487C21.793 13.1792 22 13.5698 22 13.9878V16.2026C22 16.6284 21.582 16.9292 21.1758 16.7964L14.5 14.5698V17.6948L16.75 19.3823C16.9062 19.4995 17 19.687 17 19.8823V21.5229C17 21.8276 16.7539 22.0698 16.4531 22.0698C16.4023 22.0698 16.3516 22.062 16.3008 22.0503L12 20.8198L7.69922 22.0503C7.64844 22.0659 7.59766 22.0698 7.54688 22.0698C7.24219 22.0698 7 21.8237 7 21.5229V19.8823C7 19.687 7.09375 19.4995 7.25 19.3823L9.5 17.6948V14.5698L2.82422 16.7964C2.41797 16.9292 2 16.6284 2 16.2026V13.9878C2 13.5698 2.20703 13.1792 2.55469 12.9487L9.5 8.31982V5.72998Z" fill="#072E56"/>
</svg>
